<svg width="17" height="16" viewBox="0 0 17 16" fill="none" xmlns="http://www.w3.org/2000/svg">
<path fill-rule="evenodd" clip-rule="evenodd" d="M2.5385 1.81994C3.458 0.851688 4.979 1.03244 5.7395 2.10794L6.6845 3.44594C7.29275 4.30619 7.24175 5.50094 6.51575 6.26594L6.332 6.45869C6.33148 6.46018 6.33098 6.46168 6.3305 6.46319C6.32075 6.49019 6.29675 6.57719 6.32075 6.74219C6.371 7.08344 6.63425 7.77794 7.70525 8.90519C8.77925 10.0362 9.43025 10.3024 9.7325 10.3519C9.80532 10.3683 9.88104 10.3665 9.953 10.3467L10.259 10.0242C10.9145 9.33419 11.936 9.19844 12.7603 9.67244L14.1928 10.4974C15.4175 11.2024 15.7025 12.9267 14.7238 13.9572L13.6588 15.0784C13.3265 15.4287 12.8728 15.7279 12.3125 15.7834C10.9445 15.9184 7.77575 15.7422 4.454 12.2442C1.3535 8.98094 0.764751 6.14219 0.690501 4.75544C0.653751 4.06994 0.959001 3.48269 1.361 3.05894L2.5385 1.81994ZM4.82075 2.75744C4.43675 2.21444 3.746 2.18144 3.35375 2.59469L2.17625 3.83369C1.92875 4.09619 1.7975 4.39619 1.814 4.69544C1.874 5.82794 2.36225 8.40944 5.26925 11.4694C8.31725 14.6794 11.126 14.7694 12.2023 14.6629C12.4145 14.6427 12.6335 14.5242 12.8428 14.3037L13.9078 13.1824C14.3683 12.6979 14.2475 11.8264 13.6318 11.4724L12.1993 10.6474C11.8145 10.4262 11.3638 10.4944 11.075 10.7989L10.733 11.1589L10.3378 10.7832C10.733 11.1582 10.733 11.1589 10.7323 11.1597L10.7315 11.1604L10.7293 11.1634L10.724 11.1679L10.7135 11.1784C10.682 11.2094 10.6479 11.2375 10.6115 11.2624C10.5515 11.3044 10.472 11.3517 10.3708 11.3914C10.1638 11.4732 9.89075 11.5167 9.5525 11.4619C8.894 11.3554 8.0315 10.8822 6.89 9.67994C5.744 8.47394 5.30525 7.57469 5.20775 6.90494C5.1575 6.56444 5.19725 6.29219 5.27075 6.08594C5.31155 5.971 5.36972 5.86299 5.44325 5.76569L5.46575 5.73794L5.47625 5.72669L5.48075 5.72144L5.483 5.71919L5.4845 5.71844C5.4845 5.71844 5.4845 5.71694 5.88425 6.09569L5.48525 5.71694L5.7005 5.49044C6.03425 5.13869 6.083 4.54319 5.7665 4.09544L4.82075 2.75744Z" fill="#9E8464"/>
<path d="M8.9445 0.909724C8.96861 0.762499 9.05014 0.630853 9.17121 0.543676C9.29227 0.456498 9.44298 0.420911 9.59025 0.444724C9.609 0.448474 9.6705 0.459724 9.70275 0.467224C9.7665 0.480724 9.85575 0.503224 9.96675 0.534724C10.1895 0.599974 10.5008 0.707224 10.8743 0.878224C11.6213 1.22097 12.615 1.82022 13.647 2.85147C14.679 3.88347 15.2783 4.87797 15.621 5.62497C15.792 5.99847 15.8985 6.30897 15.9637 6.53247C15.9966 6.64477 16.0249 6.75837 16.0485 6.87297L16.0522 6.89622C16.0769 7.04475 16.0423 7.19703 15.9557 7.32022C15.8691 7.44341 15.7376 7.52763 15.5895 7.55472C15.4426 7.57857 15.2923 7.54326 15.1714 7.45654C15.0506 7.36981 14.969 7.23873 14.9445 7.09197C14.9292 7.00909 14.9089 6.92719 14.8838 6.84672C14.8071 6.58915 14.7119 6.33749 14.5988 6.09372C14.3063 5.45622 13.7797 4.57572 12.8512 3.64722C11.9235 2.71872 11.0422 2.19297 10.4047 1.90047C10.1612 1.78739 9.90982 1.69214 9.6525 1.61547C9.57359 1.59321 9.49405 1.5732 9.414 1.55547C9.26654 1.53112 9.13457 1.44975 9.04659 1.32893C8.9586 1.20812 8.92167 1.05754 8.94375 0.909724H8.9445Z" fill="#9E8464"/>
<path fill-rule="evenodd" clip-rule="evenodd" d="M9.11549 3.49645C9.13571 3.42537 9.16974 3.35898 9.21563 3.30107C9.26152 3.24315 9.31837 3.19484 9.38293 3.1589C9.4475 3.12296 9.51851 3.1001 9.59192 3.09161C9.66532 3.08313 9.73968 3.08919 9.81074 3.10945L9.65624 3.6502L9.81149 3.1102H9.81299L9.81599 3.11095L9.82124 3.11245L9.83624 3.1177C9.89539 3.13751 9.95369 3.15978 10.011 3.18445C10.1205 3.23095 10.2697 3.30295 10.4535 3.4117C10.821 3.6292 11.3212 3.9892 11.91 4.5787C12.4987 5.16745 12.8602 5.66845 13.077 6.0352C13.1857 6.21895 13.2577 6.3682 13.305 6.4777C13.3297 6.53499 13.3519 6.59329 13.3717 6.65245L13.3762 6.66745L13.3777 6.67345L13.3785 6.6757V6.6772L12.8385 6.83245L13.3792 6.67795C13.4212 6.82116 13.4046 6.97519 13.333 7.10613C13.2614 7.23708 13.1407 7.33423 12.9975 7.3762C12.8543 7.41817 12.7002 7.40153 12.5693 7.32993C12.4384 7.25834 12.3412 7.13766 12.2992 6.99445L12.297 6.98695C12.2443 6.85633 12.1816 6.72996 12.1095 6.60895C11.9415 6.3262 11.64 5.8987 11.115 5.3737C10.59 4.8487 10.1625 4.5472 9.88049 4.37995C9.75947 4.30788 9.6331 4.24519 9.50249 4.19245L9.49499 4.18945C9.35317 4.14701 9.2338 4.05038 9.16276 3.92051C9.09172 3.79064 9.07473 3.63875 9.11549 3.49645Z" fill="#9E8464"/>
</svg>
