<svg width="48" height="37" viewBox="0 0 48 37" fill="none" xmlns="http://www.w3.org/2000/svg">
<path d="M45.875 14.875H43.7656L38.3398 2.66797C38.0943 2.11568 37.6939 1.64644 37.187 1.31712C36.6802 0.987792 36.0888 0.812507 35.4844 0.8125H12.5156C11.9112 0.812507 11.3198 0.987792 10.813 1.31712C10.3061 1.64644 9.9057 2.11568 9.66016 2.66797L4.23437 14.875H2.125C1.7106 14.875 1.31317 15.0396 1.02015 15.3326C0.72712 15.6257 0.5625 16.0231 0.5625 16.4375C0.5625 16.8519 0.72712 17.2493 1.02015 17.5424C1.31317 17.8354 1.7106 18 2.125 18H3.6875V33.625C3.6875 34.4538 4.01674 35.2487 4.60279 35.8347C5.18884 36.4208 5.9837 36.75 6.8125 36.75H11.5C12.3288 36.75 13.1237 36.4208 13.7097 35.8347C14.2958 35.2487 14.625 34.4538 14.625 33.625V30.5H33.375V33.625C33.375 34.4538 33.7042 35.2487 34.2903 35.8347C34.8763 36.4208 35.6712 36.75 36.5 36.75H41.1875C42.0163 36.75 42.8112 36.4208 43.3972 35.8347C43.9833 35.2487 44.3125 34.4538 44.3125 33.625V18H45.875C46.2894 18 46.6868 17.8354 46.9799 17.5424C47.2729 17.2493 47.4375 16.8519 47.4375 16.4375C47.4375 16.0231 47.2729 15.6257 46.9799 15.3326C46.6868 15.0396 46.2894 14.875 45.875 14.875ZM12.5156 3.9375H35.4844L40.3457 14.875H7.6543L12.5156 3.9375ZM11.5 33.625H6.8125V30.5H11.5V33.625ZM36.5 33.625V30.5H41.1875V33.625H36.5ZM41.1875 27.375H6.8125V18H41.1875V27.375ZM9.9375 22.6875C9.9375 22.2731 10.1021 21.8757 10.3951 21.5826C10.6882 21.2896 11.0856 21.125 11.5 21.125H14.625C15.0394 21.125 15.4368 21.2896 15.7299 21.5826C16.0229 21.8757 16.1875 22.2731 16.1875 22.6875C16.1875 23.1019 16.0229 23.4993 15.7299 23.7924C15.4368 24.0854 15.0394 24.25 14.625 24.25H11.5C11.0856 24.25 10.6882 24.0854 10.3951 23.7924C10.1021 23.4993 9.9375 23.1019 9.9375 22.6875ZM31.8125 22.6875C31.8125 22.2731 31.9771 21.8757 32.2701 21.5826C32.5632 21.2896 32.9606 21.125 33.375 21.125H36.5C36.9144 21.125 37.3118 21.2896 37.6049 21.5826C37.8979 21.8757 38.0625 22.2731 38.0625 22.6875C38.0625 23.1019 37.8979 23.4993 37.6049 23.7924C37.3118 24.0854 36.9144 24.25 36.5 24.25H33.375C32.9606 24.25 32.5632 24.0854 32.2701 23.7924C31.9771 23.4993 31.8125 23.1019 31.8125 22.6875Z" fill="#D0D0D0"/>
</svg>
