<svg width="42" height="42" viewBox="0 0 42 42" fill="none" xmlns="http://www.w3.org/2000/svg">
<path d="M21.0005 0.6875C17.4936 0.686735 14.0463 1.59392 10.994 3.32076C7.94171 5.0476 5.38851 7.53526 3.58289 10.5416C1.77728 13.5479 0.780765 16.9706 0.690348 20.4763C0.59993 23.982 1.41869 27.4515 3.06693 30.5469L0.850137 37.1973C0.666513 37.7479 0.639865 38.3388 0.773179 38.9037C0.906494 39.4686 1.1945 39.9852 1.60492 40.3956C2.01535 40.806 2.53196 41.094 3.09687 41.2273C3.66178 41.3607 4.25265 41.334 4.80326 41.1504L11.4537 38.9336C14.1778 40.3825 17.1963 41.1918 20.2799 41.3C23.3635 41.4082 26.4312 40.8125 29.2503 39.5581C32.0693 38.3036 34.5655 36.4235 36.5494 34.0603C38.5333 31.6971 39.9527 28.9131 40.7 25.9194C41.4473 22.9257 41.5027 19.8012 40.8621 16.7829C40.2215 13.7646 38.9017 10.9319 37.0029 8.49984C35.1041 6.06777 32.6762 4.10023 29.9035 2.74659C27.1307 1.39295 24.086 0.688766 21.0005 0.6875ZM21.0005 38.1875C17.979 38.1896 15.0105 37.3939 12.3951 35.8809C12.2036 35.7698 11.9907 35.7007 11.7705 35.6782C11.5502 35.6556 11.3277 35.6801 11.1177 35.75L3.81303 38.1875L6.24857 30.8828C6.31878 30.6729 6.34359 30.4505 6.32137 30.2303C6.29915 30.0101 6.2304 29.7971 6.11967 29.6055C4.22508 26.3299 3.46441 22.5207 3.95566 18.7687C4.44691 15.0167 6.16262 11.5317 8.83664 8.85428C11.5106 6.17689 14.9935 4.45678 18.7449 3.96079C22.4962 3.4648 26.3064 4.22065 29.5844 6.1111C32.8623 8.00155 35.4248 10.9209 36.8743 14.4163C38.3237 17.9117 38.5792 21.7878 37.601 25.4431C36.6228 29.0985 34.4656 32.3289 31.4641 34.6332C28.4626 36.9375 24.7845 38.1869 21.0005 38.1875Z" fill="#D0D0D0"/>
</svg>
