<svg width="14" height="17" viewBox="0 0 14 17" fill="none" xmlns="http://www.w3.org/2000/svg">
<path fill-rule="evenodd" clip-rule="evenodd" d="M0.4375 7.10725C0.4375 3.433 3.36625 0.4375 7 0.4375C10.6337 0.4375 13.5625 3.433 13.5625 7.10725C13.5625 8.881 13.057 10.786 12.163 12.4315C11.2705 14.0748 9.967 15.5028 8.335 16.2655C7.91711 16.461 7.46137 16.5624 7 16.5624C6.53863 16.5624 6.08289 16.461 5.665 16.2655C4.033 15.5028 2.7295 14.0755 1.837 12.4315C0.943 10.786 0.4375 8.881 0.4375 7.10725ZM7 1.5625C4.006 1.5625 1.5625 4.03525 1.5625 7.10725C1.5625 8.68 2.01475 10.4013 2.8255 11.8945C3.637 13.3893 4.7845 14.6125 6.1405 15.2463C6.40939 15.3722 6.70269 15.4375 6.99963 15.4375C7.29656 15.4375 7.58986 15.3722 7.85875 15.2463C9.2155 14.6125 10.363 13.3893 11.1745 11.8945C11.9852 10.402 12.4375 8.68 12.4375 7.10725C12.4375 4.03525 9.994 1.5625 7 1.5625ZM7 5.3125C6.77839 5.3125 6.55896 5.35615 6.35422 5.44095C6.14948 5.52576 5.96346 5.65006 5.80676 5.80676C5.65006 5.96346 5.52576 6.14949 5.44095 6.35422C5.35615 6.55896 5.3125 6.7784 5.3125 7C5.3125 7.22161 5.35615 7.44104 5.44095 7.64578C5.52576 7.85052 5.65006 8.03654 5.80676 8.19324C5.96346 8.34994 6.14948 8.47424 6.35422 8.55905C6.55896 8.64385 6.77839 8.6875 7 8.6875C7.44755 8.6875 7.87677 8.50971 8.19324 8.19324C8.50971 7.87678 8.6875 7.44755 8.6875 7C8.6875 6.55245 8.50971 6.12323 8.19324 5.80676C7.87677 5.49029 7.44755 5.3125 7 5.3125ZM4.1875 7C4.1875 6.25408 4.48382 5.53871 5.01126 5.01126C5.53871 4.48382 6.25408 4.1875 7 4.1875C7.74592 4.1875 8.46129 4.48382 8.98874 5.01126C9.51618 5.53871 9.8125 6.25408 9.8125 7C9.8125 7.74592 9.51618 8.46129 8.98874 8.98874C8.46129 9.51619 7.74592 9.8125 7 9.8125C6.25408 9.8125 5.53871 9.51619 5.01126 8.98874C4.48382 8.46129 4.1875 7.74592 4.1875 7Z" fill="#9E8464"/>
</svg>
