<svg width="18" height="18" viewBox="0 0 18 18" fill="none" xmlns="http://www.w3.org/2000/svg">
<path d="M5.60175 0.75C2.9385 0.75 0.75 2.9355 0.75 5.60175V12.3983C0.75 15.0615 2.9355 17.25 5.60175 17.25H12.3983C15.0615 17.25 17.25 15.0645 17.25 12.3983V5.6025C17.25 2.9385 15.0645 0.75 12.3983 0.75H5.60175ZM5.60175 2.25H12.3983C12.8386 2.24941 13.2747 2.3357 13.6816 2.50393C14.0885 2.67216 14.4583 2.91903 14.7696 3.23038C15.081 3.54174 15.3278 3.91147 15.4961 4.31839C15.6643 4.72531 15.7506 5.16143 15.75 5.60175V12.3983C15.7506 12.8386 15.6643 13.2747 15.4961 13.6816C15.3278 14.0885 15.081 14.4583 14.7696 14.7696C14.4583 15.081 14.0885 15.3278 13.6816 15.4961C13.2747 15.6643 12.8386 15.7506 12.3983 15.75H5.6025C5.16211 15.7507 4.72592 15.6645 4.31891 15.4963C3.9119 15.3281 3.54208 15.0812 3.23065 14.7699C2.91921 14.4585 2.67228 14.0888 2.504 13.6818C2.33572 13.2748 2.24941 12.8386 2.25 12.3983V5.6025C2.24931 5.16211 2.33553 4.72592 2.50371 4.31891C2.6719 3.9119 2.91875 3.54208 3.23012 3.23065C3.54148 2.91921 3.91125 2.67228 4.31822 2.504C4.72519 2.33572 5.16136 2.24941 5.60175 2.25ZM13.4295 3.891C13.3402 3.8906 13.2516 3.90791 13.169 3.94192C13.0864 3.97592 13.0113 4.02596 12.9481 4.08914C12.885 4.15231 12.8349 4.22738 12.8009 4.31C12.7669 4.39262 12.7496 4.48116 12.75 4.5705C12.75 4.9485 13.0515 5.25 13.4295 5.25C13.5189 5.2505 13.6075 5.23326 13.6902 5.1993C13.7729 5.16534 13.8481 5.11532 13.9114 5.05213C13.9746 4.98895 14.0247 4.91385 14.0588 4.83118C14.0928 4.74851 14.1101 4.65991 14.1097 4.5705C14.1101 4.48109 14.0928 4.39249 14.0588 4.30982C14.0247 4.22715 13.9746 4.15205 13.9114 4.08887C13.8481 4.02568 13.7729 3.97566 13.6902 3.9417C13.6075 3.90773 13.5189 3.8905 13.4295 3.891ZM9 4.5C6.525 4.5 4.5 6.525 4.5 9C4.5 11.475 6.525 13.5 9 13.5C11.475 13.5 13.5 11.475 13.5 9C13.5 6.525 11.475 4.5 9 4.5ZM9 6C10.6672 6 12 7.33275 12 9C12 10.6672 10.6672 12 9 12C7.33275 12 6 10.6672 6 9C6 7.33275 7.33275 6 9 6Z" fill="white" fill-opacity="0.5"/>
</svg>
