<svg width="17" height="17" viewBox="0 0 17 17" fill="none" xmlns="http://www.w3.org/2000/svg">
<path d="M2.48225 5.68127e-07C2.22207 -0.000196481 1.9644 0.0508668 1.72396 0.150274C1.48352 0.249681 1.26502 0.395483 1.08094 0.579353C0.896865 0.763223 0.750814 0.981557 0.651134 1.22188C0.551454 1.46221 0.500098 1.71982 0.5 1.98C0.5 3.075 1.38725 3.9825 2.48 3.9825C3.57425 3.9825 4.46225 3.075 4.46225 1.9815C4.46245 1.72136 4.41138 1.46372 4.31196 1.22333C4.21255 0.982929 4.06673 0.764478 3.88285 0.580459C3.69897 0.39644 3.48063 0.25046 3.24031 0.150862C2.99999 0.0512642 2.74239 4.93476e-07 2.48225 5.68127e-07ZM12.1512 5.25C10.487 5.25 9.53525 6.12 9.07775 6.9855H9.02975V5.48325H5.75V16.5H9.16775V11.0468C9.16775 9.60975 9.27575 8.22075 11.054 8.22075C12.8068 8.22075 12.8323 9.8595 12.8323 11.1375V16.5H16.25V10.449C16.25 7.488 15.6132 5.25 12.1512 5.25ZM0.77225 5.4825V16.5H4.19225V5.4825H0.77225Z" fill="white" fill-opacity="0.5"/>
</svg>
