<svg width="18" height="18" viewBox="0 0 18 18" fill="none" xmlns="http://www.w3.org/2000/svg">
<path fill-rule="evenodd" clip-rule="evenodd" d="M13.7626 1.31707C12.7334 1.17932 11.3813 1.17773 9.4987 1.17773C7.61611 1.17773 6.26395 1.17932 5.23478 1.31707C4.22224 1.45323 3.61186 1.7129 3.16061 2.16336C2.71016 2.61461 2.45128 3.22419 2.31511 4.23673C2.17736 5.2659 2.17578 6.61807 2.17578 8.50065C2.17578 10.3832 2.17736 11.7354 2.31511 12.7646C2.45128 13.7771 2.71095 14.3875 3.16141 14.8387C3.61266 15.2892 4.22224 15.5481 5.23478 15.6842C6.26395 15.822 7.61611 15.8236 9.4987 15.8236C11.3813 15.8236 12.7334 15.822 13.7626 15.6842C14.7752 15.5481 15.3855 15.2884 15.8368 14.8379C16.2872 14.3867 16.5461 13.7771 16.6823 12.7646C16.82 11.7354 16.8216 10.3832 16.8216 8.50065C16.8216 6.61807 16.82 5.2659 16.6823 4.23673C16.5461 3.22419 16.2864 2.61382 15.836 2.16257C15.3847 1.71211 14.7752 1.45323 13.7626 1.31707ZM13.9209 0.140651C15.0649 0.294234 15.9674 0.615651 16.6759 1.3234C17.3845 2.03194 17.7051 2.93444 17.8587 4.0784C18.0091 5.19544 18.0091 6.62757 18.0091 8.45553V8.54578C18.0091 10.3737 18.0091 11.8059 17.8587 12.9237C17.7051 14.0669 17.3837 14.9694 16.6759 15.6779C15.9674 16.3864 15.0649 16.7071 13.9209 16.8606C12.8039 17.0111 11.3718 17.0111 9.54382 17.0111H9.45357C7.62561 17.0111 6.19349 17.0111 5.07566 16.8606C3.93249 16.7071 3.02999 16.3857 2.32145 15.6779C1.61291 14.9694 1.29228 14.0669 1.1387 12.9229C0.988281 11.8059 0.988281 10.3737 0.988281 8.54578V8.45553C0.988281 6.62757 0.988281 5.19544 1.1387 4.07761C1.29228 2.93444 1.6137 2.03194 2.32145 1.3234C3.02999 0.614859 3.93249 0.294234 5.07645 0.140651C6.19349 -0.00976558 7.62561 -0.00976562 9.45357 -0.00976562H9.54382C11.3718 -0.00976562 12.8031 -0.00976558 13.9209 0.140651Z" fill="#B6B6B6"/>
<path fill-rule="evenodd" clip-rule="evenodd" d="M12.2997 4.03905C12.5321 3.94468 12.7872 3.92091 13.0331 3.97072C13.279 4.02052 13.5047 4.1417 13.6821 4.31909C13.8595 4.49649 13.9807 4.72224 14.0305 4.96812C14.0803 5.214 14.0566 5.46911 13.9622 5.70155L11.1811 12.9572C11.0855 13.2126 10.9157 13.4335 10.6934 13.5915C10.4712 13.7495 10.2068 13.8374 9.93418 13.8438C9.4196 13.8549 8.87493 13.5628 8.6881 12.9493L7.8521 10.1966C7.84876 10.185 7.84249 10.1743 7.83389 10.1658C7.82545 10.1576 7.81512 10.1516 7.80381 10.1483L5.05118 9.31235C4.43764 9.12551 4.14472 8.58005 4.1566 8.06547C4.16317 7.793 4.25112 7.52874 4.40914 7.30667C4.56715 7.0846 4.788 6.9149 5.04326 6.81939L12.2997 4.03905ZM12.8024 5.1371C12.7758 5.1326 12.7485 5.13619 12.724 5.14739L5.46839 7.92772C5.43296 7.93907 5.40195 7.96118 5.37967 7.99098C5.35739 8.02078 5.34496 8.05678 5.3441 8.09397C5.3428 8.11439 5.34747 8.13475 5.35756 8.15255C5.35993 8.15651 5.36626 8.1668 5.39714 8.1763L8.14897 9.0123C8.55272 9.13501 8.86543 9.44772 8.98814 9.85147L9.82414 12.6041C9.83364 12.6334 9.84393 12.6405 9.8471 12.6429C9.85501 12.6476 9.87401 12.6571 9.90726 12.6563C9.94418 12.6552 9.97983 12.6426 10.0093 12.6203C10.0388 12.5981 10.0607 12.5672 10.0719 12.5321L12.8523 5.27564C12.8633 5.25138 12.8669 5.22436 12.8626 5.19805C12.8594 5.18319 12.8521 5.16954 12.8414 5.15874C12.8308 5.14793 12.8172 5.14042 12.8024 5.1371Z" fill="#B6B6B6"/>
</svg>
