<svg width="150" height="54" viewBox="0 0 150 54" fill="none" xmlns="http://www.w3.org/2000/svg">
<g clip-path="url(#clip0_1_20)">
<path d="M36.8333 24.8333H41.1667C42.3159 24.8333 43.4181 25.2899 44.2308 26.1025C45.0435 26.9152 45.5 28.0174 45.5 29.1667V33.5C45.5 34.0746 45.2717 34.6257 44.8654 35.0321C44.4591 35.4384 43.908 35.6667 43.3333 35.6667H40.0833M36.8333 24.8333H22.75M36.8333 24.8333L31.5965 16.1038C31.2115 15.4622 30.6669 14.9311 30.0157 14.5625C29.3645 14.1938 28.629 14 27.8807 14H22.75M40.0833 35.6667C40.0833 36.8159 39.6268 37.9181 38.8141 38.7308C38.0015 39.5435 36.8993 40 35.75 40C34.6007 40 33.4985 39.5435 32.6859 38.7308C31.8732 37.9181 31.4167 36.8159 31.4167 35.6667M40.0833 35.6667C40.0833 34.5174 39.6268 33.4152 38.8141 32.6025C38.0015 31.7899 36.8993 31.3333 35.75 31.3333C34.6007 31.3333 33.4985 31.7899 32.6859 32.6025C31.8732 33.4152 31.4167 34.5174 31.4167 35.6667M22.75 24.8333V14M22.75 24.8333H10.8333M22.75 14H16.5533C15.5512 13.9996 14.5799 14.3466 13.8048 14.9818C13.0297 15.617 12.4988 16.5013 12.3023 17.484L10.8333 24.8333M10.8333 24.8333C9.68406 24.8333 8.58186 25.2899 7.7692 26.1025C6.95655 26.9152 6.5 28.0174 6.5 29.1667V33.5C6.5 34.0746 6.72827 34.6257 7.1346 35.0321C7.54093 35.4384 8.09203 35.6667 8.66667 35.6667H11.9167M11.9167 35.6667C11.9167 36.8159 12.3732 37.9181 13.1859 38.7308C13.9985 39.5435 15.1007 40 16.25 40C17.3993 40 18.5015 39.5435 19.3141 38.7308C20.1268 37.9181 20.5833 36.8159 20.5833 35.6667M11.9167 35.6667C11.9167 34.5174 12.3732 33.4152 13.1859 32.6025C13.9985 31.7899 15.1007 31.3333 16.25 31.3333C17.3993 31.3333 18.5015 31.7899 19.3141 32.6025C20.1268 33.4152 20.5833 34.5174 20.5833 35.6667M20.5833 35.6667H31.4167" stroke="#B6B6B6" stroke-width="3.5" stroke-linecap="round" stroke-linejoin="round"/>
<path d="M62.28 35.284H70.488V40H56.124V14.548H62.28V35.284ZM81.6314 14.548V40H75.4754V14.548H81.6314ZM116.662 14.728V40H110.506V24.196L105.034 40H99.7057L94.1977 24.16V40H88.0417V14.728H95.5657L102.442 32.332L109.174 14.728H116.662ZM135.169 14.152C137.569 14.152 139.741 14.716 141.685 15.844C143.653 16.948 145.201 18.496 146.329 20.488C147.457 22.456 148.021 24.688 148.021 27.184C148.021 29.68 147.445 31.924 146.293 33.916C145.165 35.908 143.617 37.468 141.649 38.596C139.705 39.7 137.545 40.252 135.169 40.252C132.793 40.252 130.621 39.7 128.653 38.596C126.709 37.468 125.161 35.908 124.009 33.916C122.881 31.924 122.317 29.68 122.317 27.184C122.317 24.688 122.881 22.456 124.009 20.488C125.161 18.496 126.709 16.948 128.653 15.844C130.621 14.716 132.793 14.152 135.169 14.152ZM135.169 19.876C133.153 19.876 131.545 20.536 130.345 21.856C129.169 23.152 128.581 24.928 128.581 27.184C128.581 29.416 129.169 31.192 130.345 32.512C131.545 33.832 133.153 34.492 135.169 34.492C137.161 34.492 138.757 33.832 139.957 32.512C141.157 31.192 141.757 29.416 141.757 27.184C141.757 24.952 141.157 23.176 139.957 21.856C138.781 20.536 137.185 19.876 135.169 19.876Z" fill="white"/>
</g>
<defs>
<clipPath id="clip0_1_20">
<rect width="150" height="54" fill="white"/>
</clipPath>
</defs>
</svg>
