<svg width="150" height="55" viewBox="0 0 150 55" fill="none" xmlns="http://www.w3.org/2000/svg">
<g clip-path="url(#clip0_1_303)">
<path d="M36.8333 25.3333H41.1667C42.3159 25.3333 43.4181 25.7899 44.2308 26.6025C45.0435 27.4152 45.5 28.5174 45.5 29.6667V34C45.5 34.5746 45.2717 35.1257 44.8654 35.5321C44.4591 35.9384 43.908 36.1667 43.3333 36.1667H40.0833M36.8333 25.3333H22.75M36.8333 25.3333L31.5965 16.6038C31.2115 15.9622 30.6669 15.4311 30.0157 15.0625C29.3645 14.6938 28.629 14.5 27.8807 14.5H22.75M40.0833 36.1667C40.0833 37.3159 39.6268 38.4181 38.8141 39.2308C38.0015 40.0435 36.8993 40.5 35.75 40.5C34.6007 40.5 33.4985 40.0435 32.6859 39.2308C31.8732 38.4181 31.4167 37.3159 31.4167 36.1667M40.0833 36.1667C40.0833 35.0174 39.6268 33.9152 38.8141 33.1025C38.0015 32.2899 36.8993 31.8333 35.75 31.8333C34.6007 31.8333 33.4985 32.2899 32.6859 33.1025C31.8732 33.9152 31.4167 35.0174 31.4167 36.1667M22.75 25.3333V14.5M22.75 25.3333H10.8333M22.75 14.5H16.5533C15.5512 14.4996 14.5799 14.8466 13.8048 15.4818C13.0297 16.117 12.4988 17.0013 12.3023 17.984L10.8333 25.3333M10.8333 25.3333C9.68406 25.3333 8.58186 25.7899 7.7692 26.6025C6.95655 27.4152 6.5 28.5174 6.5 29.6667V34C6.5 34.5746 6.72827 35.1257 7.1346 35.5321C7.54093 35.9384 8.09203 36.1667 8.66667 36.1667H11.9167M11.9167 36.1667C11.9167 37.3159 12.3732 38.4181 13.1859 39.2308C13.9985 40.0435 15.1007 40.5 16.25 40.5C17.3993 40.5 18.5015 40.0435 19.3141 39.2308C20.1268 38.4181 20.5833 37.3159 20.5833 36.1667M11.9167 36.1667C11.9167 35.0174 12.3732 33.9152 13.1859 33.1025C13.9985 32.2899 15.1007 31.8333 16.25 31.8333C17.3993 31.8333 18.5015 32.2899 19.3141 33.1025C20.1268 33.9152 20.5833 35.0174 20.5833 36.1667M20.5833 36.1667H31.4167" stroke="#B6B6B6" stroke-width="3.5" stroke-linecap="round" stroke-linejoin="round"/>
<path d="M62.28 35.784H70.488V40.5H56.124V15.048H62.28V35.784ZM81.6314 15.048V40.5H75.4754V15.048H81.6314ZM116.662 15.228V40.5H110.506V24.696L105.034 40.5H99.7057L94.1977 24.66V40.5H88.0417V15.228H95.5657L102.442 32.832L109.174 15.228H116.662ZM135.169 14.652C137.569 14.652 139.741 15.216 141.685 16.344C143.653 17.448 145.201 18.996 146.329 20.988C147.457 22.956 148.021 25.188 148.021 27.684C148.021 30.18 147.445 32.424 146.293 34.416C145.165 36.408 143.617 37.968 141.649 39.096C139.705 40.2 137.545 40.752 135.169 40.752C132.793 40.752 130.621 40.2 128.653 39.096C126.709 37.968 125.161 36.408 124.009 34.416C122.881 32.424 122.317 30.18 122.317 27.684C122.317 25.188 122.881 22.956 124.009 20.988C125.161 18.996 126.709 17.448 128.653 16.344C130.621 15.216 132.793 14.652 135.169 14.652ZM135.169 20.376C133.153 20.376 131.545 21.036 130.345 22.356C129.169 23.652 128.581 25.428 128.581 27.684C128.581 29.916 129.169 31.692 130.345 33.012C131.545 34.332 133.153 34.992 135.169 34.992C137.161 34.992 138.757 34.332 139.957 33.012C141.157 31.692 141.757 29.916 141.757 27.684C141.757 25.452 141.157 23.676 139.957 22.356C138.781 21.036 137.185 20.376 135.169 20.376Z" fill="#2E2E2E"/>
</g>
<defs>
<clipPath id="clip0_1_303">
<rect width="150" height="54" fill="white" transform="translate(0 0.5)"/>
</clipPath>
</defs>
</svg>
