<svg width="48" height="30" viewBox="0 0 48 30" fill="none" xmlns="http://www.w3.org/2000/svg">
<path d="M24 7.1875C22.4548 7.1875 20.9444 7.6457 19.6596 8.50414C18.3748 9.36259 17.3735 10.5827 16.7822 12.0103C16.1909 13.4378 16.0362 15.0087 16.3376 16.5241C16.6391 18.0396 17.3831 19.4317 18.4757 20.5243C19.5683 21.6169 20.9604 22.3609 22.4759 22.6624C23.9913 22.9638 25.5622 22.8091 26.9897 22.2178C28.4173 21.6265 29.6374 20.6252 30.4959 19.3404C31.3543 18.0556 31.8125 16.5452 31.8125 15C31.8125 12.928 30.9894 10.9409 29.5243 9.47573C28.0591 8.0106 26.072 7.1875 24 7.1875ZM24 19.6875C23.0729 19.6875 22.1666 19.4126 21.3958 18.8975C20.6249 18.3824 20.0241 17.6504 19.6693 16.7938C19.3145 15.9373 19.2217 14.9948 19.4026 14.0855C19.5834 13.1762 20.0299 12.341 20.6854 11.6854C21.341 11.0299 22.1762 10.5834 23.0855 10.4026C23.9948 10.2217 24.9373 10.3145 25.7938 10.6693C26.6504 11.0241 27.3824 11.6249 27.8975 12.3958C28.4126 13.1666 28.6875 14.0729 28.6875 15C28.6875 16.2432 28.1936 17.4355 27.3146 18.3146C26.4355 19.1936 25.2432 19.6875 24 19.6875ZM45.875 0.9375H2.125C1.7106 0.9375 1.31317 1.10212 1.02015 1.39515C0.72712 1.68817 0.5625 2.0856 0.5625 2.5V27.5C0.5625 27.9144 0.72712 28.3118 1.02015 28.6049C1.31317 28.8979 1.7106 29.0625 2.125 29.0625H45.875C46.2894 29.0625 46.6868 28.8979 46.9799 28.6049C47.2729 28.3118 47.4375 27.9144 47.4375 27.5V2.5C47.4375 2.0856 47.2729 1.68817 46.9799 1.39515C46.6868 1.10212 46.2894 0.9375 45.875 0.9375ZM36.8223 25.9375H11.1777C10.6531 24.1633 9.69298 22.5485 8.38473 21.2403C7.07648 19.932 5.46171 18.9719 3.6875 18.4473V11.5527C5.46171 11.0281 7.07648 10.068 8.38473 8.75973C9.69298 7.45148 10.6531 5.83671 11.1777 4.0625H36.8223C37.3469 5.83671 38.307 7.45148 39.6153 8.75973C40.9235 10.068 42.5383 11.0281 44.3125 11.5527V18.4473C42.5383 18.9719 40.9235 19.932 39.6153 21.2403C38.307 22.5485 37.3469 24.1633 36.8223 25.9375ZM44.3125 8.23633C42.4384 7.43045 40.9445 5.93665 40.1387 4.0625H44.3125V8.23633ZM7.86133 4.0625C7.05545 5.93665 5.56165 7.43045 3.6875 8.23633V4.0625H7.86133ZM3.6875 21.7637C5.56165 22.5695 7.05545 24.0634 7.86133 25.9375H3.6875V21.7637ZM40.1387 25.9375C40.9445 24.0634 42.4384 22.5695 44.3125 21.7637V25.9375H40.1387Z" fill="#D0D0D0"/>
</svg>
