<svg width="32" height="42" viewBox="0 0 32 42" fill="none" xmlns="http://www.w3.org/2000/svg">
<path d="M28.5 0.6875H9.75C8.9212 0.6875 8.12634 1.01674 7.54029 1.60279C6.95424 2.18884 6.625 2.9837 6.625 3.8125V6.9375H3.5C2.6712 6.9375 1.87634 7.26674 1.29029 7.85279C0.70424 8.43884 0.375 9.2337 0.375 10.0625V39.75C0.374993 40.0371 0.454085 40.3186 0.603593 40.5637C0.753102 40.8088 0.967247 41.008 1.22252 41.1394C1.4778 41.2707 1.76433 41.3292 2.05067 41.3084C2.33701 41.2876 2.61209 41.1884 2.8457 41.0215L12.875 33.8574L22.9062 41.0215C23.1399 41.1878 23.4147 41.2866 23.7008 41.3071C23.9868 41.3277 24.273 41.269 24.5279 41.1377C24.7829 41.0064 24.9968 40.8075 25.1462 40.5627C25.2956 40.3179 25.3748 40.0368 25.375 39.75V32.0723L29.1543 34.7715C29.3879 34.9384 29.663 35.0376 29.9493 35.0584C30.2357 35.0792 30.5222 35.0207 30.7775 34.8894C31.0328 34.758 31.2469 34.5588 31.3964 34.3137C31.5459 34.0686 31.625 33.7871 31.625 33.5V3.8125C31.625 2.9837 31.2958 2.18884 30.7097 1.60279C30.1237 1.01674 29.3288 0.6875 28.5 0.6875ZM22.25 36.7148L13.7812 30.6602C13.5162 30.4709 13.1987 30.3691 12.873 30.3691C12.5474 30.3691 12.2298 30.4709 11.9648 30.6602L3.5 36.7129V10.0625H22.25V36.7148ZM28.5 30.4648L25.375 28.2266V10.0625C25.375 9.2337 25.0458 8.43884 24.4597 7.85279C23.8737 7.26674 23.0788 6.9375 22.25 6.9375H9.75V3.8125H28.5V30.4648Z" fill="#D0D0D0"/>
</svg>
