<svg width="18" height="17" viewBox="0 0 18 17" fill="none" xmlns="http://www.w3.org/2000/svg">
<path fill-rule="evenodd" clip-rule="evenodd" d="M9 1.5625C7.16006 1.5625 5.39548 2.29341 4.09445 3.59445C2.79341 4.89548 2.0625 6.66006 2.0625 8.5C2.0625 10.3399 2.79341 12.1045 4.09445 13.4056C5.39548 14.7066 7.16006 15.4375 9 15.4375C10.8399 15.4375 12.6045 14.7066 13.9056 13.4056C15.2066 12.1045 15.9375 10.3399 15.9375 8.5C15.9375 6.66006 15.2066 4.89548 13.9056 3.59445C12.6045 2.29341 10.8399 1.5625 9 1.5625ZM0.9375 8.5C0.9375 4.04725 4.54725 0.4375 9 0.4375C13.4528 0.4375 17.0625 4.04725 17.0625 8.5C17.0625 12.9528 13.4528 16.5625 9 16.5625C4.54725 16.5625 0.9375 12.9528 0.9375 8.5ZM9 4.9375C9.14918 4.9375 9.29226 4.99676 9.39775 5.10225C9.50324 5.20774 9.5625 5.35082 9.5625 5.5V8.2675L11.2725 9.9775C11.3278 10.029 11.3721 10.0911 11.4028 10.1601C11.4336 10.2291 11.4501 10.3036 11.4514 10.3791C11.4528 10.4546 11.4389 10.5297 11.4106 10.5997C11.3823 10.6697 11.3402 10.7334 11.2868 10.7868C11.2334 10.8402 11.1697 10.8823 11.0997 10.9106C11.0297 10.9389 10.9546 10.9528 10.8791 10.9514C10.8036 10.9501 10.7291 10.9336 10.6601 10.9028C10.5911 10.8721 10.529 10.8278 10.4775 10.7725L8.6025 8.8975C8.49698 8.79211 8.43763 8.64913 8.4375 8.5V5.5C8.4375 5.35082 8.49676 5.20774 8.60225 5.10225C8.70774 4.99676 8.85082 4.9375 9 4.9375Z" fill="#9E8464"/>
</svg>
