<svg width="18" height="16" viewBox="0 0 18 16" fill="none" xmlns="http://www.w3.org/2000/svg">
<path d="M18 2.41931C17.326 2.71768 16.611 2.91311 15.879 2.99906C16.6497 2.53757 17.2265 1.8118 17.502 0.956812C16.7772 1.38636 15.9847 1.68968 15.1583 1.85381C14.652 1.31258 13.9946 0.936185 13.2715 0.77358C12.5485 0.610975 11.7932 0.66968 11.104 0.942061C10.4147 1.21444 9.82337 1.6879 9.40681 2.30086C8.99025 2.91383 8.76775 3.63795 8.76825 4.37906C8.76825 4.66931 8.8005 4.95056 8.86575 5.21981C7.39688 5.14751 5.95974 4.76652 4.64796 4.10165C3.33619 3.43678 2.17924 2.50297 1.2525 1.36106C0.923233 1.92469 0.750528 2.56605 0.75225 3.21881C0.75225 4.49906 1.4025 5.63006 2.3955 6.29231C1.80897 6.2737 1.23544 6.11476 0.723 5.82881V5.87606C0.722492 6.72894 1.01732 7.55569 1.55738 8.21579C2.09744 8.8759 2.84942 9.32864 3.6855 9.49706C3.1418 9.64617 2.57109 9.66824 2.0175 9.56156C2.25331 10.2953 2.7124 10.937 3.33066 11.3972C3.94892 11.8573 4.69546 12.1128 5.466 12.1281C4.69998 12.7293 3.82291 13.1736 2.88499 13.4355C1.94706 13.6974 0.966695 13.7717 0 13.6543C1.68789 14.7405 3.65306 15.3173 5.66025 15.3156C12.4537 15.3156 16.1693 9.68756 16.1693 4.80656C16.1693 4.64906 16.1632 4.48706 16.1572 4.32881C16.8792 3.8061 17.503 3.15991 18 2.42006V2.41931Z" fill="white" fill-opacity="0.5"/>
</svg>
