<svg width="18" height="18" viewBox="0 0 18 18" fill="none" xmlns="http://www.w3.org/2000/svg">
<path fill-rule="evenodd" clip-rule="evenodd" d="M9.45436 -0.00976562H9.54303C10.9981 -0.00976562 12.1508 -0.00976562 13.0525 0.111359C13.9803 0.236443 14.7316 0.499276 15.3246 1.09144C15.9167 1.6844 16.1796 2.43569 16.3047 3.36353C16.3862 3.96836 16.4123 4.68561 16.421 5.5319H16.6237C17.3884 5.5319 18.0091 6.15257 18.0091 6.91732V7.70898C18.0091 8.1444 17.8033 8.55607 17.4549 8.81732L16.4234 9.59077C16.4179 10.5661 16.3949 11.3799 16.3047 12.0544C16.1796 12.9823 15.9167 13.7336 15.3246 14.3265C15.1742 14.4769 15.0134 14.606 14.8424 14.7168V15.6256C14.8424 15.9931 14.6965 16.3455 14.4367 16.6053C14.1768 16.8651 13.8245 17.0111 13.457 17.0111H12.2695C11.9021 17.0111 11.5497 16.8651 11.2899 16.6053C11.0301 16.3455 10.8841 15.9931 10.8841 15.6256V15.423C10.4685 15.4277 10.0228 15.4277 9.54303 15.4277H9.45436C8.97461 15.4277 8.52811 15.4277 8.11328 15.423V15.6256C8.11328 15.9931 7.96732 16.3455 7.7075 16.6053C7.44769 16.8651 7.0953 17.0111 6.72786 17.0111H5.54036C5.17293 17.0111 4.82054 16.8651 4.56073 16.6053C4.30091 16.3455 4.15495 15.9931 4.15495 15.6256V14.7168C3.98099 14.604 3.81939 14.4732 3.67282 14.3265C3.08066 13.7336 2.81782 12.9823 2.69274 12.0544C2.60249 11.3799 2.57953 10.5661 2.57399 9.59077L1.54245 8.81732C1.19411 8.55607 0.988281 8.1444 0.988281 7.70898V6.91732C0.988281 6.15257 1.60895 5.5319 2.3737 5.5319H2.57557C2.58507 4.68561 2.6112 3.96836 2.69274 3.36353C2.81782 2.43569 3.08066 1.6844 3.67282 1.09144C4.26578 0.499276 5.01707 0.236443 5.94491 0.111359C6.8474 -0.00976562 7.99928 -0.00976562 9.45436 -0.00976562ZM2.57161 6.7194H2.3737C2.32121 6.7194 2.27087 6.74025 2.23375 6.77737C2.19663 6.81448 2.17578 6.86483 2.17578 6.91732V7.70898C2.17578 7.73971 2.18293 7.77001 2.19668 7.79749C2.21042 7.82498 2.23037 7.84888 2.25495 7.86732L2.57161 8.10482V6.7194ZM3.76386 9.88607C3.77178 10.7046 3.79711 11.357 3.86995 11.8969C3.97682 12.6925 4.17791 13.1517 4.51278 13.4866C4.84766 13.8214 5.30682 14.0225 6.10324 14.1294C6.91707 14.2386 7.98899 14.2402 9.4987 14.2402C11.0084 14.2402 12.0803 14.2386 12.8949 14.1294C13.6906 14.0225 14.1497 13.8214 14.4846 13.4866C14.8195 13.1517 15.0206 12.6925 15.1274 11.8961C15.2003 11.3578 15.2248 10.7046 15.2335 9.88607H3.76386ZM15.2383 8.69857H3.75911V6.91732C3.75911 5.42661 3.7607 4.36261 3.86599 3.55273H15.1314C15.2367 4.36261 15.2383 5.42661 15.2383 6.91732V8.69857ZM16.4258 8.10482L16.7424 7.86732C16.767 7.84888 16.787 7.82498 16.8007 7.79749C16.8145 7.77001 16.8216 7.73971 16.8216 7.70898V6.91732C16.8216 6.86483 16.8008 6.81448 16.7636 6.77737C16.7265 6.74025 16.6762 6.7194 16.6237 6.7194H16.4258V8.10482ZM14.8037 2.36523C14.7199 2.2053 14.6123 2.05902 14.4846 1.9314C14.1497 1.59653 13.6906 1.39544 12.8942 1.28857C12.0803 1.17932 11.0084 1.17773 9.4987 1.17773C7.98899 1.17773 6.91707 1.17932 6.10245 1.28857C5.30682 1.39544 4.84766 1.59653 4.51278 1.9314C4.38515 2.05909 4.27759 2.20535 4.19374 2.36523H14.8037ZM5.34245 15.1981V15.6256C5.34245 15.7349 5.43111 15.8236 5.54036 15.8236H6.72786C6.78035 15.8236 6.8307 15.8027 6.86781 15.7656C6.90493 15.7285 6.92578 15.6781 6.92578 15.6256V15.3913C6.5978 15.3766 6.27056 15.3483 5.94491 15.3066C5.7425 15.2799 5.54146 15.2437 5.34245 15.1981ZM12.0716 15.3913V15.6256C12.0716 15.7349 12.1603 15.8236 12.2695 15.8236H13.457C13.5095 15.8236 13.5599 15.8027 13.597 15.7656C13.6341 15.7285 13.6549 15.6781 13.6549 15.6256V15.1981C13.456 15.2439 13.2549 15.2801 13.0525 15.3066C12.7268 15.3483 12.3996 15.3766 12.0716 15.3913ZM4.94661 11.6673C4.94661 11.5098 5.00917 11.3588 5.12052 11.2475C5.23187 11.1361 5.38289 11.0736 5.54036 11.0736H6.72786C6.88534 11.0736 7.03636 11.1361 7.14771 11.2475C7.25906 11.3588 7.32161 11.5098 7.32161 11.6673C7.32161 11.8248 7.25906 11.9758 7.14771 12.0872C7.03636 12.1985 6.88534 12.2611 6.72786 12.2611H5.54036C5.38289 12.2611 5.23187 12.1985 5.12052 12.0872C5.00917 11.9758 4.94661 11.8248 4.94661 11.6673ZM11.6758 11.6673C11.6758 11.5098 11.7383 11.3588 11.8497 11.2475C11.961 11.1361 12.1121 11.0736 12.2695 11.0736H13.457C13.6145 11.0736 13.7655 11.1361 13.8769 11.2475C13.9882 11.3588 14.0508 11.5098 14.0508 11.6673C14.0508 11.8248 13.9882 11.9758 13.8769 12.0872C13.7655 12.1985 13.6145 12.2611 13.457 12.2611H12.2695C12.1121 12.2611 11.961 12.1985 11.8497 12.0872C11.7383 11.9758 11.6758 11.8248 11.6758 11.6673Z" fill="#B6B6B6"/>
</svg>
