<svg width="20" height="16" viewBox="0 0 20 16" fill="none" xmlns="http://www.w3.org/2000/svg">
<path d="M10 0.5C7.1755 0.5 4.6795 0.7925 3.15625 1.016C1.89625 1.2005 0.88 2.14925 0.64825 3.40625C0.4525 4.47575 0.25 6.04025 0.25 8C0.25 9.95975 0.4525 11.525 0.64825 12.5938C0.88 13.8507 1.89625 14.8025 3.15625 14.9847C4.68625 15.2067 7.1905 15.5 10 15.5C12.8095 15.5 15.3145 15.2075 16.8438 14.984C18.1038 14.8025 19.12 13.8507 19.3517 12.5938C19.5475 11.5212 19.75 9.95375 19.75 8C19.75 6.04625 19.5505 4.47875 19.3517 3.40625C19.12 2.14925 18.1038 1.2005 16.8438 1.01525C15.3205 0.79325 12.8238 0.5 10 0.5ZM10 2C12.7247 2 15.1593 2.27825 16.633 2.492C16.9393 2.53578 17.224 2.67478 17.4469 2.88934C17.6698 3.10389 17.8196 3.38312 17.875 3.6875C18.0565 4.6775 18.25 6.14525 18.25 8C18.25 9.85175 18.0565 11.3225 17.875 12.3125C17.8205 12.6173 17.6711 12.8971 17.448 13.1118C17.2249 13.3265 16.9397 13.4652 16.633 13.508C15.1525 13.7218 12.7067 14 10 14C7.2925 14 4.84375 13.7218 3.367 13.508C3.06056 13.4647 2.77558 13.3258 2.55261 13.1112C2.32963 12.8965 2.18 12.6171 2.125 12.3125C1.9435 11.3225 1.75 9.85775 1.75 8C1.75 6.14 1.9435 4.6775 2.125 3.6875C2.18 3.38293 2.32963 3.10346 2.55261 2.88883C2.77558 2.6742 3.06056 2.53534 3.367 2.492C4.83775 2.27825 7.27525 2 10 2ZM7.75 3.71075V12.29L8.875 11.657L14.125 8.657L15.25 8L14.125 7.34375L8.875 4.34375L7.75 3.71075ZM9.25 6.28925L12.2267 8L9.25 9.71075V6.28925Z" fill="white" fill-opacity="0.5"/>
</svg>
